<?xml version="1.0"?><svg id="Warstwa_1" xmlns="http://www.w3.org/2000/svg" viewBox="0 0 561.5 140"><defs></defs><path class="cls-2" d="M115.89,0H45.39v45H0s0,39.77,0,39.77c0,30.5,24.61,55.23,54.97,55.23h60.92v-45.6h-60.92c-5.29,0-9.58-4.31-9.58-9.63v-39.77s70.5,0,70.5,0V0Z"></path><path class="cls-1" d="M217.64,115.44c-26.64,0-43.32-17.64-43.32-45.72s17.64-45.96,44.16-45.96c22.2,0,38.16,12.72,40.92,32.64h-20.52c-2.64-8.88-10.2-13.92-20.88-13.92-14.4,0-23.16,10.2-23.16,27.12s8.88,27.12,23.16,27.12c10.92,0,18.96-5.4,21.36-14.16h20.16c-3.12,19.8-19.68,32.88-41.88,32.88ZM266.75,83.88c0-18.96,13.92-31.68,33.12-31.68s33,12.72,33,31.68-13.92,31.56-33,31.56-33.12-12.6-33.12-31.56ZM285.35,83.76c0,9.12,5.88,15.12,14.52,15.12s14.4-6,14.4-15.12-5.88-15-14.4-15-14.52,6-14.52,15ZM352.45,44.64c-5.88,0-10.56-4.68-10.56-10.56s4.68-10.44,10.56-10.44,10.44,4.56,10.44,10.44-4.68,10.56-10.44,10.56ZM343.33,114v-60h18.48v60h-18.48ZM393.91,114h-18.48v-60h17.4l1.2,6.24c3.72-5.16,10.56-8.16,18.36-8.16,14.28,0,22.56,9.12,22.56,24.84v37.08h-18.48v-32.64c0-7.56-4.2-12.48-10.56-12.48-7.32,0-12,4.8-12,12.24v32.88ZM463.46,114l-26.64-88.8h20.28l11.64,38.52c1.56,5.28,3,10.56,4.44,19.32,1.44-8.76,2.88-13.8,4.44-19.32l10.92-38.52h21.72l10.44,38.52c1.44,5.4,2.88,10.8,4.44,19.32,1.8-9,3.12-13.92,4.68-19.08l11.88-38.76h19.8l-27.12,88.8h-18.96l-16.2-58.32-16.68,58.32h-19.08Z"></path></svg>